<svg width="29" height="29" viewBox="0 0 29 29" fill="none" xmlns="http://www.w3.org/2000/svg">
<path d="M6.36505 10.8881C5.39381 9.59312 6.31781 7.74512 7.93654 7.74512H20.7704C22.3891 7.74512 23.3131 9.59312 22.3419 10.8881V10.8881C21.6335 11.8326 21.2505 12.9814 21.2505 14.162V21.5393C21.2505 24.0787 19.1919 26.1374 16.6525 26.1374H12.0544C9.51498 26.1374 7.45636 24.0787 7.45636 21.5393V14.162C7.45636 12.9814 7.07343 11.8326 6.36505 10.8881V10.8881Z" stroke="#FF6619" stroke-width="1.72427"/>
<path d="M16.6523 20.3898L16.6523 13.4927" stroke="#FF6619" stroke-width="1.72427" stroke-linecap="round" stroke-linejoin="round"/>
<path d="M12.0537 20.3898L12.0537 13.4927" stroke="#FF6619" stroke-width="1.72427" stroke-linecap="round" stroke-linejoin="round"/>
<path d="M18.952 7.74493L18.3265 5.8684C18.0135 4.92961 17.135 4.29639 16.1454 4.29639H12.5624C11.5728 4.29639 10.6943 4.92961 10.3814 5.8684L9.75586 7.74493" stroke="#FF6619" stroke-width="1.72427" stroke-linecap="round"/>
</svg>
