<svg width="24" height="24" viewBox="0 0 24 24" fill="none" xmlns="http://www.w3.org/2000/svg">
<path fill-rule="evenodd" clip-rule="evenodd" d="M13.5147 3.80576C14.5878 2.73101 16.3284 2.73035 17.4023 3.80429L19.8942 6.29615C20.959 7.36093 20.97 9.08469 19.919 10.1631L10.6858 19.6363C9.98031 20.3602 9.01265 20.7684 8.00221 20.7683L5.25007 20.7682C3.97082 20.7682 2.94921 19.7018 3.00301 18.4227L3.12116 15.6137C3.16066 14.6746 3.55094 13.7846 4.21478 13.1198L13.5147 3.80576ZM16.3425 4.86576C15.8543 4.3776 15.0631 4.3779 14.5754 4.86642L12.9123 6.53203L17.1921 10.8118L18.8456 9.1153C19.3233 8.62513 19.3183 7.8416 18.8343 7.35761L16.3425 4.86576ZM5.27544 14.1804L11.8524 7.59349L16.145 11.8861L9.61245 18.5886C9.18914 19.0229 8.60854 19.2678 8.00228 19.2678L5.25013 19.2676C4.82372 19.2676 4.48318 18.9122 4.50111 18.4858L4.61927 15.6768C4.64297 15.1133 4.87713 14.5794 5.27544 14.1804ZM20.5158 20.695C20.9298 20.695 21.2655 20.3591 21.2655 19.9447C21.2655 19.5304 20.9298 19.1945 20.5158 19.1945H14.3941C13.98 19.1945 13.6444 19.5304 13.6444 19.9447C13.6444 20.3591 13.98 20.695 14.3941 20.695H20.5158Z" fill="#2C2C2C"/>
</svg>
