<svg width="248" height="191" viewBox="0 0 248 191" fill="none" xmlns="http://www.w3.org/2000/svg">
<path d="M128.188 0C95.6342 23.5497 78.8377 91.7746 77.1061 124.675C111.738 82.424 144.061 59.4515 155.894 54.5453C137.192 64.2422 122.705 85.1368 117.799 94.372C128.188 98.5278 153.874 114.574 165.418 122.078C165.418 111.688 159.068 87.157 155.894 76.1903L184.465 38.0951C148.448 33.9393 112.315 61.7603 98.751 76.1903C104.985 59.5669 128.477 43.8671 139.444 38.0951C139.444 22.8571 131.94 6.34919 128.188 0Z" fill="#008077"/>
<path d="M86.3506 53.4002C77.3463 53.4002 67.5916 61.481 63.8398 65.5214C68.6883 65.5214 81.2117 70.381 81.2117 70.381C81.2117 70.381 82.3288 60.55 86.3506 53.4002Z" fill="#008077"/>
<path d="M17.9317 161.155C17.8204 160.033 17.3428 159.161 16.4989 158.539C15.6549 157.918 14.5095 157.607 13.0628 157.607C12.0797 157.607 11.2496 157.746 10.5726 158.025C9.89561 158.294 9.37625 158.669 9.01456 159.152C8.66214 159.634 8.48593 160.181 8.48593 160.793C8.46738 161.303 8.57403 161.748 8.80589 162.129C9.04702 162.509 9.37625 162.838 9.79359 163.116C10.2109 163.385 10.6932 163.622 11.2404 163.826C11.7876 164.02 12.3718 164.187 12.9932 164.327L15.5529 164.939C16.7956 165.217 17.9364 165.588 18.9751 166.052C20.0138 166.515 20.9134 167.086 21.6739 167.763C22.4344 168.44 23.0233 169.237 23.4406 170.155C23.8672 171.074 24.0852 172.126 24.0945 173.313C24.0852 175.057 23.64 176.569 22.759 177.848C21.8872 179.119 20.6259 180.107 18.9751 180.811C17.3335 181.507 15.3535 181.855 13.0349 181.855C10.7349 181.855 8.73169 181.502 7.02523 180.798C5.32805 180.093 4.00183 179.049 3.04659 177.668C2.10061 176.276 1.60444 174.556 1.55807 172.506H7.38693C7.45185 173.462 7.72544 174.259 8.2077 174.899C8.69923 175.53 9.35307 176.007 10.1692 176.332C10.9946 176.647 11.9267 176.805 12.9654 176.805C13.9855 176.805 14.8712 176.657 15.6224 176.36C16.3829 176.063 16.9719 175.65 17.3892 175.122C17.8065 174.593 18.0152 173.986 18.0152 173.299C18.0152 172.659 17.8251 172.122 17.4448 171.686C17.0739 171.25 16.5267 170.879 15.8033 170.573C15.0892 170.267 14.2128 169.988 13.1741 169.738L10.0718 168.959C7.66979 168.375 5.77321 167.461 4.38208 166.218C2.99094 164.976 2.30001 163.302 2.30928 161.196C2.30001 159.471 2.75909 157.964 3.68651 156.675C4.62321 155.386 5.90769 154.38 7.53995 153.657C9.17222 152.933 11.0271 152.571 13.1045 152.571C15.219 152.571 17.0646 152.933 18.6412 153.657C20.2271 154.38 21.4606 155.386 22.3416 156.675C23.2227 157.964 23.6771 159.458 23.7049 161.155H17.9317ZM30.9785 157.927V152.961H54.3774V157.927H45.655V181.451H39.7009V157.927H30.9785ZM63.5777 181.451H57.1228L66.9581 152.961H74.7207L84.5421 181.451H78.0872L70.9507 159.471H70.7281L63.5777 181.451ZM63.1742 170.253H78.4211V174.955H63.1742V170.253ZM91.8887 181.451V152.961H103.129C105.281 152.961 107.117 153.346 108.638 154.116C110.168 154.876 111.332 155.957 112.13 157.357C112.937 158.748 113.34 160.385 113.34 162.268C113.34 164.16 112.932 165.787 112.116 167.151C111.3 168.505 110.117 169.543 108.568 170.267C107.029 170.99 105.165 171.352 102.976 171.352H95.45V166.511H102.002C103.152 166.511 104.107 166.353 104.868 166.038C105.628 165.722 106.194 165.249 106.565 164.619C106.945 163.988 107.136 163.204 107.136 162.268C107.136 161.322 106.945 160.524 106.565 159.875C106.194 159.226 105.624 158.734 104.854 158.4C104.094 158.057 103.134 157.886 101.974 157.886H97.9123V181.451H91.8887ZM107.275 168.486L114.355 181.451H107.706L100.778 168.486H107.275ZM138.291 160.084C138.134 158.498 137.434 157.236 136.191 156.3C134.948 155.363 133.385 154.895 131.503 154.895C130.176 154.895 129.008 155.122 127.997 155.576C126.995 156.031 126.207 156.661 125.632 157.468C125.066 158.266 124.783 159.175 124.783 160.195C124.783 160.946 124.946 161.605 125.27 162.17C125.595 162.736 126.031 163.223 126.578 163.631C127.134 164.03 127.747 164.373 128.414 164.66C129.091 164.948 129.773 165.189 130.459 165.384L133.464 166.246C134.373 166.497 135.282 166.817 136.191 167.206C137.1 167.596 137.93 168.087 138.681 168.681C139.441 169.265 140.049 169.984 140.503 170.837C140.967 171.681 141.199 172.697 141.199 173.884C141.199 175.405 140.805 176.773 140.016 177.987C139.228 179.202 138.097 180.167 136.622 180.881C135.147 181.586 133.381 181.938 131.322 181.938C129.383 181.938 127.7 181.618 126.272 180.978C124.844 180.329 123.722 179.434 122.905 178.294C122.089 177.153 121.63 175.831 121.528 174.329H124.199C124.292 175.451 124.663 176.402 125.312 177.181C125.961 177.96 126.805 178.553 127.844 178.961C128.883 179.36 130.042 179.559 131.322 179.559C132.741 179.559 134.002 179.323 135.106 178.85C136.219 178.368 137.09 177.7 137.721 176.847C138.361 175.984 138.681 174.983 138.681 173.842C138.681 172.877 138.43 172.071 137.93 171.421C137.429 170.763 136.729 170.211 135.829 169.766C134.939 169.321 133.905 168.927 132.727 168.583L129.319 167.582C127.083 166.914 125.349 165.991 124.116 164.813C122.882 163.636 122.265 162.133 122.265 160.306C122.265 158.776 122.674 157.431 123.49 156.272C124.315 155.103 125.428 154.194 126.828 153.545C128.238 152.887 129.819 152.558 131.572 152.558C133.344 152.558 134.911 152.882 136.274 153.531C137.638 154.181 138.718 155.075 139.516 156.216C140.322 157.348 140.754 158.637 140.809 160.084H138.291ZM151.376 181.451V152.961H153.978V166.024H170.143V152.961H172.744V181.451H170.143V168.361H153.978V181.451H151.376ZM186.817 152.961V181.451H184.216V152.961H186.817ZM198.309 181.451V152.961H207.505C209.526 152.961 211.214 153.35 212.568 154.13C213.932 154.899 214.956 155.947 215.643 157.273C216.338 158.6 216.686 160.093 216.686 161.753C216.686 163.413 216.343 164.911 215.657 166.246C214.97 167.573 213.95 168.625 212.596 169.404C211.242 170.174 209.559 170.559 207.546 170.559H200.312V168.222H207.477C208.97 168.222 210.208 167.943 211.191 167.387C212.174 166.821 212.907 166.052 213.389 165.078C213.881 164.104 214.126 162.996 214.126 161.753C214.126 160.51 213.881 159.402 213.389 158.428C212.907 157.454 212.169 156.689 211.177 156.133C210.194 155.576 208.947 155.298 207.435 155.298H200.911V181.451H198.309ZM242.18 160.084C242.022 158.498 241.322 157.236 240.079 156.3C238.837 155.363 237.274 154.895 235.391 154.895C234.065 154.895 232.896 155.122 231.886 155.576C230.884 156.031 230.096 156.661 229.521 157.468C228.955 158.266 228.672 159.175 228.672 160.195C228.672 160.946 228.834 161.605 229.159 162.17C229.484 162.736 229.919 163.223 230.467 163.631C231.023 164.03 231.635 164.373 232.303 164.66C232.98 164.948 233.662 165.189 234.348 165.384L237.353 166.246C238.262 166.497 239.17 166.817 240.079 167.206C240.988 167.596 241.818 168.087 242.569 168.681C243.33 169.265 243.937 169.984 244.392 170.837C244.856 171.681 245.087 172.697 245.087 173.884C245.087 175.405 244.693 176.773 243.905 177.987C243.117 179.202 241.985 180.167 240.511 180.881C239.036 181.586 237.269 181.938 235.21 181.938C233.272 181.938 231.589 181.618 230.161 180.978C228.732 180.329 227.61 179.434 226.794 178.294C225.978 177.153 225.519 175.831 225.417 174.329H228.088C228.181 175.451 228.551 176.402 229.201 177.181C229.85 177.96 230.694 178.553 231.733 178.961C232.771 179.36 233.931 179.559 235.21 179.559C236.629 179.559 237.891 179.323 238.994 178.85C240.107 178.368 240.979 177.7 241.61 176.847C242.25 175.984 242.569 174.983 242.569 173.842C242.569 172.877 242.319 172.071 241.818 171.421C241.317 170.763 240.617 170.211 239.718 169.766C238.827 169.321 237.793 168.927 236.615 168.583L233.207 167.582C230.972 166.914 229.238 165.991 228.004 164.813C226.771 163.636 226.154 162.133 226.154 160.306C226.154 158.776 226.562 157.431 227.378 156.272C228.204 155.103 229.317 154.194 230.717 153.545C232.127 152.887 233.708 152.558 235.461 152.558C237.232 152.558 238.8 152.882 240.163 153.531C241.526 154.181 242.607 155.075 243.404 156.216C244.211 157.348 244.642 158.637 244.698 160.084H242.18Z" fill="#008077"/>
</svg>
