<svg width="123" height="28" viewBox="0 0 123 28" fill="none" xmlns="http://www.w3.org/2000/svg">
<path d="M110.761 0.278564C103.697 5.3886 100.052 20.1927 99.6765 27.3317C107.191 18.1637 114.205 13.1789 116.773 12.1143C112.715 14.2184 109.571 18.7523 108.506 20.7563C110.761 21.6581 116.334 25.1399 118.839 26.7681C118.839 24.5137 117.461 19.1907 116.773 16.811L122.972 8.5448C115.157 7.64303 107.316 13.6799 104.373 16.811C105.726 13.2039 110.823 9.79726 113.203 8.5448C113.203 5.23831 111.575 1.65627 110.761 0.278564Z" fill="#008077"/>
<path d="M101.682 11.8658C99.7286 11.8658 97.612 13.6193 96.7979 14.496C97.8499 14.496 100.567 15.5505 100.567 15.5505C100.567 15.5505 100.81 13.4173 101.682 11.8658Z" fill="#008077"/>
<path d="M6.98057 17.3335C6.9422 16.9466 6.77752 16.646 6.48653 16.4318C6.19554 16.2175 5.80063 16.1104 5.30179 16.1104C4.96283 16.1104 4.67664 16.1584 4.44321 16.2543C4.20978 16.3471 4.03071 16.4766 3.906 16.6428C3.78449 16.8091 3.72373 16.9978 3.72373 17.2088C3.71734 17.3847 3.75411 17.5382 3.83405 17.6693C3.91719 17.8004 4.03071 17.9139 4.1746 18.0098C4.3185 18.1026 4.48478 18.1841 4.67344 18.2545C4.86211 18.3216 5.06356 18.3792 5.2778 18.4271L6.16036 18.6382C6.58885 18.7341 6.98217 18.862 7.34031 19.0219C7.69845 19.1818 8.00862 19.3785 8.27083 19.6119C8.53304 19.8453 8.7361 20.1203 8.87999 20.4369C9.02709 20.7535 9.10223 21.1164 9.10543 21.5257C9.10223 22.1269 8.94874 22.6481 8.64496 23.0894C8.34438 23.5274 7.9095 23.868 7.34031 24.111C6.77432 24.3509 6.09161 24.4708 5.29219 24.4708C4.49917 24.4708 3.80847 24.3493 3.2201 24.1062C2.63492 23.8632 2.17765 23.5035 1.84829 23.027C1.52213 22.5474 1.35105 21.9542 1.33506 21.2475H3.34481C3.36719 21.5769 3.46152 21.8519 3.6278 22.0725C3.79728 22.2899 4.02271 22.4546 4.30411 22.5665C4.5887 22.6753 4.91007 22.7296 5.26821 22.7296C5.61996 22.7296 5.92533 22.6785 6.18435 22.5761C6.44656 22.4738 6.64961 22.3315 6.79351 22.1492C6.9374 21.967 7.00935 21.7575 7.00935 21.5209C7.00935 21.3003 6.9438 21.1148 6.81269 20.9645C6.68478 20.8142 6.49612 20.6863 6.2467 20.5808C6.00048 20.4753 5.6983 20.3793 5.34016 20.293L4.27053 20.0244C3.44233 19.8229 2.78841 19.508 2.30876 19.0795C1.8291 18.651 1.59088 18.0738 1.59407 17.3479C1.59088 16.7532 1.74916 16.2335 2.06893 15.7891C2.3919 15.3446 2.83478 14.9976 3.39757 14.7482C3.96036 14.4988 4.5999 14.3741 5.31618 14.3741C6.04525 14.3741 6.68159 14.4988 7.22519 14.7482C7.772 14.9976 8.19729 15.3446 8.50107 15.7891C8.80485 16.2335 8.96153 16.7484 8.97113 17.3335H6.98057ZM11.479 16.2207V14.5084H19.5467V16.2207H16.5393V24.3317H14.4864V16.2207H11.479ZM22.7189 24.3317H20.4933L23.8845 14.5084H26.5609L29.9473 24.3317H27.7217L25.2611 16.7532H25.1843L22.7189 24.3317ZM22.5798 20.4705H27.8368V22.0917H22.5798V20.4705ZM32.4803 24.3317V14.5084H36.3559C37.0978 14.5084 37.7309 14.6411 38.2553 14.9065C38.783 15.1687 39.1843 15.5412 39.4593 16.0241C39.7375 16.5037 39.8766 17.0681 39.8766 17.7173C39.8766 18.3696 39.7359 18.9308 39.4545 19.4008C39.1731 19.8677 38.7654 20.2258 38.2314 20.4753C37.7005 20.7247 37.0578 20.8494 36.3032 20.8494H33.7082V19.1802H35.9674C36.3639 19.1802 36.6933 19.1258 36.9555 19.0171C37.2177 18.9084 37.4127 18.7453 37.5407 18.5279C37.6718 18.3104 37.7373 18.0402 37.7373 17.7173C37.7373 17.3911 37.6718 17.1161 37.5407 16.8923C37.4127 16.6684 37.2161 16.4989 36.9507 16.3838C36.6885 16.2655 36.3575 16.2064 35.9578 16.2064H34.5572V24.3317H32.4803ZM37.7853 19.8613L40.2267 24.3317H37.934L35.5453 19.8613H37.7853ZM48.4796 16.9642C48.4252 16.4174 48.1838 15.9825 47.7553 15.6596C47.3268 15.3366 46.788 15.1751 46.1389 15.1751C45.6816 15.1751 45.2787 15.2534 44.9302 15.4101C44.5848 15.5668 44.313 15.7843 44.1148 16.0625C43.9197 16.3375 43.8222 16.6508 43.8222 17.0026C43.8222 17.2616 43.8781 17.4886 43.9901 17.6837C44.102 17.8787 44.2523 18.0466 44.4409 18.1873C44.6328 18.3248 44.8438 18.4431 45.0741 18.5423C45.3075 18.6414 45.5425 18.7245 45.7792 18.7917L46.8152 19.0891C47.1286 19.1754 47.442 19.2857 47.7553 19.42C48.0687 19.5543 48.3549 19.7238 48.6139 19.9285C48.8761 20.1299 49.0856 20.3777 49.2423 20.6719C49.4021 20.9629 49.4821 21.3131 49.4821 21.7224C49.4821 22.2468 49.3462 22.7184 49.0744 23.1373C48.8026 23.5562 48.4125 23.8888 47.904 24.135C47.3956 24.378 46.7864 24.4995 46.0765 24.4995C45.4082 24.4995 44.8279 24.3892 44.3354 24.1686C43.843 23.9447 43.456 23.6362 43.1747 23.2429C42.8933 22.8495 42.735 22.3939 42.6998 21.8758H43.6207C43.6527 22.2628 43.7806 22.5905 44.0044 22.8591C44.2283 23.1277 44.5193 23.3324 44.8774 23.4731C45.2356 23.6106 45.6353 23.6793 46.0765 23.6793C46.5658 23.6793 47.0007 23.5978 47.3812 23.4347C47.7649 23.2684 48.0655 23.0382 48.2829 22.744C48.5036 22.4466 48.6139 22.1013 48.6139 21.708C48.6139 21.3754 48.5276 21.0972 48.3549 20.8734C48.1822 20.6463 47.9408 20.4561 47.6306 20.3026C47.3236 20.1491 46.9671 20.0132 46.561 19.8949L45.3858 19.5495C44.6152 19.3193 44.0172 19.0011 43.5919 18.595C43.1667 18.1889 42.954 17.6709 42.954 17.0409C42.954 16.5133 43.0947 16.0497 43.3761 15.65C43.6607 15.2471 44.0444 14.9337 44.5273 14.7098C45.0133 14.4828 45.5585 14.3693 46.1629 14.3693C46.7736 14.3693 47.314 14.4812 47.7841 14.705C48.2542 14.9289 48.6267 15.2375 48.9017 15.6308C49.1799 16.0209 49.3286 16.4654 49.3478 16.9642H48.4796ZM52.9912 24.3317V14.5084H53.8882V19.0123H59.4617V14.5084H60.3587V24.3317H59.4617V19.8181H53.8882V24.3317H52.9912ZM65.2108 14.5084V24.3317H64.3139V14.5084H65.2108ZM69.1732 24.3317V14.5084H72.3437C73.0408 14.5084 73.6228 14.6427 74.0897 14.9113C74.5597 15.1767 74.9131 15.538 75.1497 15.9953C75.3895 16.4526 75.5095 16.9674 75.5095 17.5398C75.5095 18.1122 75.3911 18.6286 75.1545 19.0891C74.9179 19.5463 74.5661 19.9093 74.0993 20.1779C73.6324 20.4433 73.052 20.576 72.3581 20.576H69.8639V19.7702H72.3342C72.849 19.7702 73.2759 19.6742 73.6148 19.4824C73.9538 19.2873 74.2064 19.0219 74.3727 18.6862C74.5422 18.3504 74.6269 17.9683 74.6269 17.5398C74.6269 17.1113 74.5422 16.7292 74.3727 16.3934C74.2064 16.0577 73.9522 15.7939 73.61 15.602C73.2711 15.4101 72.841 15.3142 72.3198 15.3142H70.0702V24.3317H69.1732ZM84.2996 16.9642C84.2452 16.4174 84.0038 15.9825 83.5753 15.6596C83.1468 15.3366 82.608 15.1751 81.9589 15.1751C81.5016 15.1751 81.0987 15.2534 80.7501 15.4101C80.4048 15.5668 80.133 15.7843 79.9347 16.0625C79.7397 16.3375 79.6421 16.6508 79.6421 17.0026C79.6421 17.2616 79.6981 17.4886 79.81 17.6837C79.9219 17.8787 80.0722 18.0466 80.2609 18.1873C80.4527 18.3248 80.6638 18.4431 80.894 18.5423C81.1275 18.6414 81.3625 18.7245 81.5991 18.7917L82.6352 19.0891C82.9485 19.1754 83.2619 19.2857 83.5753 19.42C83.8887 19.5543 84.1748 19.7238 84.4339 19.9285C84.6961 20.1299 84.9055 20.3777 85.0622 20.6719C85.2221 20.9629 85.302 21.3131 85.302 21.7224C85.302 22.2468 85.1661 22.7184 84.8943 23.1373C84.6225 23.5562 84.2324 23.8888 83.724 24.135C83.2155 24.378 82.6064 24.4995 81.8965 24.4995C81.2282 24.4995 80.6478 24.3892 80.1554 24.1686C79.6629 23.9447 79.276 23.6362 78.9946 23.2429C78.7132 22.8495 78.5549 22.3939 78.5197 21.8758H79.4407C79.4727 22.2628 79.6006 22.5905 79.8244 22.8591C80.0482 23.1277 80.3392 23.3324 80.6974 23.4731C81.0555 23.6106 81.4552 23.6793 81.8965 23.6793C82.3857 23.6793 82.8206 23.5978 83.2012 23.4347C83.5849 23.2684 83.8855 23.0382 84.1029 22.744C84.3235 22.4466 84.4339 22.1013 84.4339 21.708C84.4339 21.3754 84.3475 21.0972 84.1748 20.8734C84.0022 20.6463 83.7607 20.4561 83.4506 20.3026C83.1436 20.1491 82.7871 20.0132 82.3809 19.8949L81.2058 19.5495C80.4352 19.3193 79.8372 19.0011 79.4119 18.595C78.9866 18.1889 78.774 17.6709 78.774 17.0409C78.774 16.5133 78.9147 16.0497 79.1961 15.65C79.4807 15.2471 79.8644 14.9337 80.3472 14.7098C80.8333 14.4828 81.3785 14.3693 81.9828 14.3693C82.5936 14.3693 83.134 14.4812 83.6041 14.705C84.0741 14.9289 84.4467 15.2375 84.7217 15.6308C84.9999 16.0209 85.1485 16.4654 85.1677 16.9642H84.2996Z" fill="#008077"/>
</svg>
