<svg width="271" height="280" viewBox="0 0 271 280" fill="none" xmlns="http://www.w3.org/2000/svg">
<path d="M144.684 0.258789C71.8341 52.9588 34.2466 205.634 30.3716 279.259C107.872 184.709 180.205 133.3 206.684 122.321C164.834 144.021 132.413 190.78 121.434 211.446C144.684 220.746 202.163 256.655 227.997 273.446C227.997 250.196 213.788 195.3 206.684 170.759L270.622 85.5088C190.022 76.2088 109.163 138.467 78.8091 170.759C92.759 133.559 145.33 98.4255 169.872 85.5088C169.872 51.4088 153.08 14.4671 144.684 0.258789Z" fill="#008077"/>
<path d="M51.0591 119.759C30.9091 119.759 9.07992 137.842 0.684082 146.884C11.5341 146.884 39.5591 157.759 39.5591 157.759C39.5591 157.759 42.0591 135.759 51.0591 119.759Z" fill="#008077"/>
</svg>
