<svg width="37" height="36" viewBox="0 0 37 36" fill="none" xmlns="http://www.w3.org/2000/svg">
<path d="M8.33754 13.1004C7.0984 11.4482 8.27728 9.09045 10.3425 9.09045H26.7165C28.7817 9.09045 29.9606 11.4482 28.7215 13.1004V13.1004C27.8177 14.3055 27.3291 15.7711 27.3291 17.2774V26.6897C27.3291 29.9296 24.7026 32.5561 21.4627 32.5561H15.5963C12.3564 32.5561 9.72989 29.9296 9.72989 26.6897V17.2774C9.72989 15.7711 9.24133 14.3055 8.33754 13.1004V13.1004Z" stroke="#FF6619" stroke-width="2.1999"/>
<path d="M21.4629 25.223L21.4629 16.4234" stroke="#FF6619" stroke-width="2.1999" stroke-linecap="round" stroke-linejoin="round"/>
<path d="M15.5957 25.223L15.5957 16.4234" stroke="#FF6619" stroke-width="2.1999" stroke-linecap="round" stroke-linejoin="round"/>
<path d="M24.3959 9.09036L23.5979 6.6962C23.1986 5.49844 22.0777 4.69055 20.8152 4.69055H16.2438C14.9813 4.69055 13.8604 5.49844 13.4611 6.6962L12.6631 9.09036" stroke="#FF6619" stroke-width="2.1999" stroke-linecap="round"/>
</svg>
