<svg width="199" height="55" viewBox="0 0 199 55" fill="none" xmlns="http://www.w3.org/2000/svg">
<path d="M28.1989 0C13.933 10.32 6.5724 40.2178 5.81358 54.6354C20.9901 36.1201 35.1548 26.053 40.3401 23.903C32.1448 28.1524 25.796 37.3089 23.646 41.356C28.1989 43.1772 39.4548 50.209 44.5137 53.4972C44.5137 48.9442 41.7313 38.1942 40.3401 33.3883L52.8608 16.6942C37.0772 14.873 21.243 27.0648 15.2989 33.3883C18.0307 26.1036 28.3254 19.2236 33.1313 16.6942C33.1313 10.0165 29.843 2.78236 28.1989 0Z" fill="white"/>
<path d="M9.86473 23.4012C5.91884 23.4012 1.64412 26.9424 0 28.713C2.12471 28.713 7.61273 30.8426 7.61273 30.8426C7.61273 30.8426 8.1023 26.5344 9.86473 23.4012Z" fill="white"/>
<path d="M71.9114 24.8684C71.8504 24.253 71.5884 23.7749 71.1256 23.4341C70.6627 23.0933 70.0346 22.9229 69.2411 22.9229C68.7019 22.9229 68.2467 22.9992 67.8754 23.1518C67.5041 23.2993 67.2192 23.5053 67.0209 23.7698C66.8276 24.0343 66.7309 24.3344 66.7309 24.6701C66.7208 24.9498 66.7793 25.194 66.9064 25.4025C67.0387 25.6111 67.2192 25.7916 67.4481 25.9442C67.677 26.0917 67.9415 26.2214 68.2416 26.3333C68.5417 26.4401 68.8621 26.5317 69.2029 26.608L70.6068 26.9437C71.2884 27.0963 71.914 27.2997 72.4837 27.5541C73.0533 27.8084 73.5467 28.1212 73.9638 28.4925C74.3809 28.8638 74.7039 29.3012 74.9327 29.8048C75.1667 30.3083 75.2863 30.8856 75.2913 31.5367C75.2863 32.4929 75.0421 33.322 74.5589 34.0239C74.0808 34.7208 73.389 35.2625 72.4837 35.649C71.5834 36.0305 70.4974 36.2213 69.2258 36.2213C67.9644 36.2213 66.8657 36.028 65.9298 35.6414C64.999 35.2548 64.2717 34.6826 63.7478 33.9248C63.229 33.1618 62.9568 32.2183 62.9314 31.0942H66.1282C66.1638 31.6181 66.3139 32.0555 66.5784 32.4065C66.8479 32.7523 67.2065 33.0143 67.6541 33.1923C68.1068 33.3653 68.618 33.4517 69.1877 33.4517C69.7472 33.4517 70.2329 33.3703 70.6449 33.2076C71.062 33.0448 71.385 32.8185 71.6139 32.5285C71.8428 32.2386 71.9572 31.9055 71.9572 31.5291C71.9572 31.1781 71.8529 30.8831 71.6444 30.644C71.4409 30.405 71.1408 30.2015 70.7441 30.0337C70.3525 29.8658 69.8718 29.7132 69.3021 29.5759L67.6007 29.1486C66.2833 28.8282 65.2432 28.3272 64.4802 27.6456C63.7173 26.964 63.3383 26.0459 63.3434 24.8913C63.3383 23.9453 63.5901 23.1187 64.0987 22.4117C64.6125 21.7047 65.3169 21.1528 66.2121 20.7561C67.1073 20.3594 68.1246 20.161 69.264 20.161C70.4237 20.161 71.4359 20.3594 72.3005 20.7561C73.1703 21.1528 73.8468 21.7047 74.33 22.4117C74.8132 23.1187 75.0625 23.9376 75.0777 24.8684H71.9114ZM79.0668 23.0984V20.3746H91.8998V23.0984H87.116V36H83.8506V23.0984H79.0668ZM96.9456 36H93.4055L98.7996 20.3746H103.057L108.443 36H104.903L100.989 23.9453H100.867L96.9456 36ZM96.7244 29.8582H105.086V32.437H96.7244V29.8582ZM112.473 36V20.3746H118.637C119.817 20.3746 120.824 20.5857 121.659 21.0079C122.498 21.425 123.136 22.0175 123.574 22.7856C124.016 23.5485 124.237 24.4463 124.237 25.4788C124.237 26.5164 124.014 27.4091 123.566 28.1568C123.118 28.8994 122.47 29.4691 121.62 29.8658C120.776 30.2626 119.754 30.4609 118.553 30.4609H114.426V27.8058H118.019C118.65 27.8058 119.174 27.7194 119.591 27.5464C120.008 27.3735 120.318 27.1141 120.522 26.7682C120.73 26.4223 120.835 25.9925 120.835 25.4788C120.835 24.96 120.73 24.5226 120.522 24.1665C120.318 23.8105 120.006 23.5409 119.583 23.3578C119.166 23.1696 118.64 23.0755 118.004 23.0755H115.776V36H112.473ZM120.911 28.8892L124.794 36H121.147L117.348 28.8892H120.911ZM137.922 24.281C137.835 23.4112 137.451 22.7194 136.77 22.2057C136.088 21.692 135.231 21.4351 134.199 21.4351C133.471 21.4351 132.83 21.5597 132.276 21.809C131.727 22.0582 131.294 22.4041 130.979 22.8466C130.669 23.284 130.513 23.7825 130.513 24.342C130.513 24.754 130.603 25.1151 130.781 25.4254C130.959 25.7357 131.198 26.0027 131.498 26.2265C131.803 26.4452 132.139 26.6334 132.505 26.7911C132.876 26.9488 133.25 27.081 133.626 27.1878L135.274 27.6609C135.773 27.7982 136.271 27.9737 136.77 28.1873C137.268 28.4009 137.723 28.6705 138.135 28.996C138.553 29.3165 138.886 29.7107 139.135 30.1786C139.389 30.6415 139.516 31.1984 139.516 31.8495C139.516 32.6837 139.3 33.4339 138.868 34.1002C138.436 34.7666 137.815 35.2955 137.006 35.6872C136.198 36.0738 135.229 36.267 134.099 36.267C133.036 36.267 132.113 36.0916 131.33 35.7406C130.547 35.3845 129.931 34.8937 129.483 34.2681C129.036 33.6425 128.784 32.9176 128.728 32.0937H130.193C130.244 32.7091 130.447 33.2305 130.803 33.6577C131.159 34.085 131.622 34.4105 132.192 34.6343C132.762 34.853 133.397 34.9624 134.099 34.9624C134.878 34.9624 135.569 34.8327 136.175 34.5733C136.785 34.3088 137.263 33.9426 137.609 33.4746C137.96 33.0016 138.135 32.4522 138.135 31.8266C138.135 31.2976 137.998 30.8551 137.723 30.4991C137.449 30.1379 137.065 29.8353 136.571 29.5912C136.083 29.347 135.516 29.1308 134.87 28.9426L133.001 28.3933C131.775 28.0271 130.824 27.521 130.147 26.875C129.471 26.229 129.133 25.4051 129.133 24.403C129.133 23.5638 129.356 22.8263 129.804 22.1905C130.257 21.5496 130.867 21.0511 131.635 20.6951C132.408 20.3339 133.275 20.1534 134.237 20.1534C135.208 20.1534 136.068 20.3314 136.816 20.6874C137.563 21.0435 138.156 21.5343 138.593 22.1599C139.036 22.7805 139.272 23.4875 139.303 24.281H137.922ZM145.098 36V20.3746H146.525V27.5388H155.391V20.3746H156.817V36H155.391V28.8206H146.525V36H145.098ZM164.535 20.3746V36H163.109V20.3746H164.535ZM170.838 36V20.3746H175.881C176.99 20.3746 177.916 20.5882 178.658 21.0155C179.406 21.4377 179.968 22.0124 180.345 22.7398C180.726 23.4671 180.917 24.286 180.917 25.1965C180.917 26.107 180.729 26.9284 180.352 27.6609C179.976 28.3882 179.416 28.9655 178.674 29.3928C177.931 29.815 177.008 30.026 175.904 30.026H171.937V28.7443H175.866C176.685 28.7443 177.364 28.5917 177.903 28.2865C178.442 27.9762 178.844 27.5541 179.109 27.02C179.378 26.4859 179.513 25.8781 179.513 25.1965C179.513 24.5149 179.378 23.9071 179.109 23.373C178.844 22.839 178.44 22.4193 177.895 22.1142C177.356 21.809 176.672 21.6564 175.843 21.6564H172.265V36H170.838ZM194.899 24.281C194.812 23.4112 194.428 22.7194 193.747 22.2057C193.065 21.692 192.208 21.4351 191.176 21.4351C190.448 21.4351 189.807 21.5597 189.253 21.809C188.704 22.0582 188.271 22.4041 187.956 22.8466C187.646 23.284 187.49 23.7825 187.49 24.342C187.49 24.754 187.579 25.1151 187.757 25.4254C187.936 25.7357 188.175 26.0027 188.475 26.2265C188.78 26.4452 189.116 26.6334 189.482 26.7911C189.853 26.9488 190.227 27.081 190.603 27.1878L192.251 27.6609C192.75 27.7982 193.248 27.9737 193.747 28.1873C194.245 28.4009 194.7 28.6705 195.112 28.996C195.529 29.3165 195.863 29.7107 196.112 30.1786C196.366 30.6415 196.493 31.1984 196.493 31.8495C196.493 32.6837 196.277 33.4339 195.845 34.1002C195.412 34.7666 194.792 35.2955 193.983 35.6872C193.174 36.0738 192.206 36.267 191.076 36.267C190.013 36.267 189.09 36.0916 188.307 35.7406C187.524 35.3845 186.908 34.8937 186.46 34.2681C186.013 33.6425 185.761 32.9176 185.705 32.0937H187.17C187.221 32.7091 187.424 33.2305 187.78 33.6577C188.136 34.085 188.599 34.4105 189.169 34.6343C189.739 34.853 190.374 34.9624 191.076 34.9624C191.855 34.9624 192.546 34.8327 193.152 34.5733C193.762 34.3088 194.24 33.9426 194.586 33.4746C194.937 33.0016 195.112 32.4522 195.112 31.8266C195.112 31.2976 194.975 30.8551 194.7 30.4991C194.426 30.1379 194.042 29.8353 193.548 29.5912C193.06 29.347 192.493 29.1308 191.847 28.9426L189.978 28.3933C188.752 28.0271 187.801 27.521 187.124 26.875C186.448 26.229 186.109 25.4051 186.109 24.403C186.109 23.5638 186.333 22.8263 186.781 22.1905C187.234 21.5496 187.844 21.0511 188.612 20.6951C189.385 20.3339 190.252 20.1534 191.214 20.1534C192.185 20.1534 193.045 20.3314 193.792 20.6874C194.54 21.0435 195.133 21.5343 195.57 22.1599C196.013 22.7805 196.249 23.4875 196.28 24.281H194.899Z" fill="white"/>
</svg>
